<svg width="74" height="73" viewBox="0 0 74 73" fill="none" xmlns="http://www.w3.org/2000/svg">
<mask id="mask0_177_241" style="mask-type:alpha" maskUnits="userSpaceOnUse" x="0" y="0" width="74" height="73">
<rect x="0.748047" y="0.0386963" width="72.3256" height="72.3256" fill="#D9D9D9"/>
</mask>
<g mask="url(#mask0_177_241)">
<path d="M15.8162 57.2965H20.0352L46.0272 31.3045L41.8082 27.0855L15.8162 53.0775V57.2965ZM58.9102 26.9348L46.1025 14.2778L50.3215 10.0588C51.4767 8.90365 52.8961 8.32605 54.5797 8.32605C56.2613 8.32605 57.6796 8.90365 58.8348 10.0588L63.0538 14.2778C64.209 15.433 64.8117 16.8273 64.862 18.4607C64.9122 20.092 64.3597 21.4853 63.2045 22.6405L58.9102 26.9348ZM54.5405 31.3798L22.5967 63.3236H9.78906V50.516L41.7329 18.5722L54.5405 31.3798Z" fill="#333333"/>
</g>
</svg>
