<svg width="98" height="97" viewBox="0 0 98 97" fill="none" xmlns="http://www.w3.org/2000/svg">
<mask id="mask0_72_264" style="mask-type:alpha" maskUnits="userSpaceOnUse" x="0" y="0" width="98" height="97">
<rect x="0.814453" y="0.488892" width="96.3716" height="96.3716" fill="#D9D9D9"/>
</mask>
<g mask="url(#mask0_72_264)">
<path d="M44.5841 93.648V85.6171C36.2185 84.6132 28.9746 81.0662 22.8523 74.976C16.7274 68.8859 13.1964 61.658 12.2595 53.2924H4.22852V44.4584H12.2595C13.2634 36.0928 16.8104 28.8475 22.9005 22.7226C28.9907 16.6003 36.2185 13.0707 44.5841 12.1337V4.10278H53.4182V12.1337C61.7838 13.0707 69.0116 16.6003 75.1018 22.7226C81.1919 28.8475 84.7389 36.0928 85.7428 44.4584H93.7738V53.2924H85.7428C84.8059 61.658 81.2763 68.8859 75.154 74.976C69.029 81.0662 61.7838 84.6132 53.4182 85.6171V93.648H44.5841ZM49.0011 76.6826C56.6975 76.6826 63.2561 73.9722 68.677 68.5513C74.0979 63.1304 76.8084 56.5718 76.8084 48.8754C76.8084 41.1791 74.0979 34.6204 68.677 29.1995C63.2561 23.7786 56.6975 21.0682 49.0011 21.0682C41.3048 21.0682 34.7462 23.7786 29.3253 29.1995C23.9044 34.6204 21.1939 41.1791 21.1939 48.8754C21.1939 56.5718 23.9044 63.1304 29.3253 68.5513C34.7462 73.9722 41.3048 76.6826 49.0011 76.6826Z" fill="#333333"/>
</g>
</svg>
