<svg width="119" height="119" viewBox="0 0 119 119" fill="none" xmlns="http://www.w3.org/2000/svg">
<mask id="mask0_246_244" style="mask-type:alpha" maskUnits="userSpaceOnUse" x="0" y="0" width="119" height="119">
<rect x="0.386719" y="0.471191" width="117.992" height="117.992" fill="#D9D9D9"/>
</mask>
<g mask="url(#mask0_246_244)">
<path d="M34.8017 103.714C32.0977 103.714 29.7838 102.752 27.8598 100.828C25.9327 98.9007 24.9691 96.5852 24.9691 93.8812V29.969H20.0527V20.1364H44.6343V15.2201H74.1322V20.1364H98.7138V29.969H93.7975V93.8812C93.7975 96.5852 92.8356 98.9007 90.9116 100.828C88.9844 102.752 86.6688 103.714 83.9649 103.714H34.8017ZM83.9649 29.969H34.8017V93.8812H83.9649V29.969ZM44.6343 84.0486H54.467V39.8017H44.6343V84.0486ZM64.2996 84.0486H74.1322V39.8017H64.2996V84.0486Z" fill="#333333"/>
</g>
</svg>
