<svg width="144" height="144" viewBox="0 0 144 144" fill="none" xmlns="http://www.w3.org/2000/svg">
<mask id="mask0_232_256" style="mask-type:alpha" maskUnits="userSpaceOnUse" x="0" y="0" width="144" height="144">
<rect x="0.482422" y="0.206543" width="142.814" height="142.814" fill="#D9D9D9"/>
</mask>
<g mask="url(#mask0_232_256)">
<path d="M58.2003 128.144L55.82 109.995C54.2332 109.499 52.6226 108.755 50.9882 107.763C49.3498 106.771 47.8363 105.73 46.4479 104.639L29.6375 111.78L15.9512 87.9776L30.5301 76.969C30.3317 76.0764 30.2088 75.1838 30.1611 74.2912C30.1096 73.3987 30.0838 72.5061 30.0838 71.6135C30.0838 70.8201 30.1096 69.9771 30.1611 69.0845C30.2088 68.1919 30.3317 67.2497 30.5301 66.258L15.9512 55.2494L29.6375 31.5959L46.4479 38.5878C47.8363 37.4968 49.3498 36.4813 50.9882 35.5411C52.6226 34.5969 54.2332 33.8273 55.82 33.2323L58.2003 15.083H85.5729L87.9532 33.2323C89.7383 33.9265 91.349 34.6941 92.785 35.5351C94.2251 36.3801 95.6889 37.3977 97.1765 38.5878L114.136 31.5959L127.822 55.2494L113.094 66.4067C113.293 67.3985 113.392 68.2911 113.392 69.0845V71.6135C113.392 72.4069 113.366 73.2241 113.315 74.0651C113.267 74.9101 113.144 75.8781 112.946 76.969L127.524 87.9776L113.838 111.78L97.1765 104.639C95.6889 105.829 94.1775 106.871 92.6422 107.763C91.103 108.656 89.54 109.4 87.9532 109.995L85.5729 128.144H58.2003ZM71.8866 89.4652C76.8454 89.4652 81.0604 87.7296 84.5316 84.2585C88.0027 80.7873 89.7383 76.5723 89.7383 71.6135C89.7383 66.6547 88.0027 62.4397 84.5316 58.9685C81.0604 55.4973 76.8454 53.7618 71.8866 53.7618C66.9278 53.7618 62.7128 55.4973 59.2416 58.9685C55.7704 62.4397 54.0349 66.6547 54.0349 71.6135C54.0349 76.5723 55.7704 80.7873 59.2416 84.2585C62.7128 87.7296 66.9278 89.4652 71.8866 89.4652ZM71.8866 80.5394C69.4072 80.5394 67.3007 79.6706 65.5671 77.933C63.8295 76.1994 62.9607 74.0929 62.9607 71.6135C62.9607 69.1341 63.8295 67.0276 65.5671 65.294C67.3007 63.5564 69.4072 62.6876 71.8866 62.6876C74.366 62.6876 76.4725 63.5564 78.2061 65.294C79.9437 67.0276 80.8125 69.1341 80.8125 71.6135C80.8125 74.0929 79.9437 76.1994 78.2061 77.933C76.4725 79.6706 74.366 80.5394 71.8866 80.5394ZM65.936 119.218H77.6884L79.7711 103.3C82.8456 102.507 85.6225 101.366 88.1019 99.8787C90.5813 98.3911 93.0111 96.5067 95.3914 94.2257L110.119 100.474L116.07 90.3578L103.127 80.6881C103.623 79.1013 103.946 77.5641 104.097 76.0764C104.244 74.5888 104.317 73.1011 104.317 71.6135C104.317 70.0267 104.244 68.5152 104.097 67.0791C103.946 65.6391 103.623 64.1753 103.127 62.6876L116.07 52.8692L110.268 42.7532L95.2426 49.0013C93.2591 46.9186 90.8789 45.058 88.1019 43.4197C85.325 41.7852 82.548 40.6209 79.7711 39.9267L77.8372 24.0089H66.0848L64.0021 39.9267C61.0268 40.6209 58.2499 41.7118 55.6713 43.1995C53.0927 44.6871 50.6133 46.5715 48.233 48.8525L33.5054 42.7532L27.7036 52.8692L40.4973 62.3901C40.0014 63.8777 39.6543 65.3654 39.456 66.853C39.2576 68.3407 39.1584 69.9275 39.1584 71.6135C39.1584 73.2003 39.2576 74.7375 39.456 76.2252C39.6543 77.7128 40.0014 79.2005 40.4973 80.6881L27.7036 90.3578L33.5054 100.474L48.233 94.2257C50.5141 96.5067 52.9439 98.3911 55.5225 99.8787C58.1011 101.366 60.9276 102.507 64.0021 103.3L65.936 119.218Z" fill="#333333"/>
</g>
</svg>
