<svg width="122" height="122" viewBox="0 0 122 122" fill="none" xmlns="http://www.w3.org/2000/svg">
<mask id="mask0_70_223" style="mask-type:alpha" maskUnits="userSpaceOnUse" x="0" y="0" width="122" height="122">
<rect x="0.289062" y="0.074707" width="121.201" height="121.201" fill="#D9D9D9"/>
</mask>
<g mask="url(#mask0_70_223)">
<path d="M25.5396 90.2181C30.0846 85.7572 35.3669 82.2424 41.3866 79.6736C47.4029 77.1082 53.904 75.8254 60.8899 75.8254C67.8758 75.8254 74.3786 77.1082 80.3982 79.6736C86.4145 82.2424 91.6952 85.7572 96.2402 90.2181V25.325H25.5396V90.2181ZM60.8899 65.7253C65.7716 65.7253 69.9379 63.9999 73.3888 60.549C76.8396 57.0982 78.5651 52.9319 78.5651 48.0502C78.5651 43.1685 76.8396 39.0022 73.3888 35.5513C69.9379 32.1004 65.7716 30.375 60.8899 30.375C56.0082 30.375 51.8419 32.1004 48.391 35.5513C44.9402 39.0022 43.2147 43.1685 43.2147 48.0502C43.2147 52.9319 44.9402 57.0982 48.391 60.549C51.8419 63.9999 56.0082 65.7253 60.8899 65.7253ZM25.5396 106.126C22.762 106.126 20.3835 105.138 18.4038 103.161C16.4276 101.182 15.4395 98.8032 15.4395 96.0256V25.325C15.4395 22.5474 16.4276 20.1689 18.4038 18.1892C20.3835 16.213 22.762 15.2249 25.5396 15.2249H96.2402C99.0178 15.2249 101.396 16.213 103.376 18.1892C105.352 20.1689 106.34 22.5474 106.34 25.325V96.0256C106.34 98.8032 105.352 101.182 103.376 103.161C101.396 105.138 99.0178 106.126 96.2402 106.126H25.5396ZM35.6396 96.0256H86.1401V94.7631C82.6051 91.8173 78.6913 89.6087 74.3988 88.1375C70.1062 86.6628 65.6033 85.9255 60.8899 85.9255C56.1765 85.9255 51.6736 86.6628 47.381 88.1375C43.0885 89.6087 39.1747 91.8173 35.6396 94.7631V96.0256ZM60.8899 55.6252C58.7857 55.6252 56.998 54.8879 55.5267 53.4133C54.0521 51.9421 53.3148 50.1544 53.3148 48.0502C53.3148 45.946 54.0521 44.1583 55.5267 42.687C56.998 41.2124 58.7857 40.4751 60.8899 40.4751C62.9941 40.4751 64.7818 41.2124 66.253 42.687C67.7277 44.1583 68.465 45.946 68.465 48.0502C68.465 50.1544 67.7277 51.9421 66.253 53.4133C64.7818 54.8879 62.9941 55.6252 60.8899 55.6252Z" fill="#333333"/>
</g>
</svg>
