<svg width="30" height="31" viewBox="0 0 30 31" fill="none" xmlns="http://www.w3.org/2000/svg">
<path d="M17.0895 11.0405C17.0888 10.8131 17.0038 10.594 16.8508 10.4256C16.6979 10.2573 16.4879 10.1517 16.2616 10.1293C16.0353 10.1069 15.8087 10.1693 15.6257 10.3044C15.4428 10.4394 15.3164 10.6376 15.2712 10.8605C15.0636 11.8982 14.7752 12.4217 14.452 12.7835C14.1397 13.1325 13.7705 13.3786 13.1938 13.7588L12.9073 13.9499C12.7124 14.088 12.579 14.2967 12.5355 14.5316C12.492 14.7665 12.5417 15.0092 12.6741 15.208C12.8065 15.4069 13.0112 15.5463 13.2447 15.5967C13.4782 15.6471 13.7222 15.6045 13.9248 15.478L14.1856 15.3072C14.5401 15.0739 14.9075 14.8315 15.2528 14.5486V20.2241C15.2528 20.4677 15.3495 20.7013 15.5218 20.8735C15.694 21.0457 15.9276 21.1425 16.1711 21.1425C16.4147 21.1425 16.6483 21.0457 16.8205 20.8735C16.9928 20.7013 17.0895 20.4677 17.0895 20.2241V11.0405ZM15.2528 4.61194C13.8056 4.61194 12.3725 4.89699 11.0355 5.45081C9.69842 6.00464 8.48355 6.81639 7.46021 7.83973C6.43688 8.86306 5.62512 10.0779 5.0713 11.415C4.51747 12.752 4.23242 14.1851 4.23242 15.6323C4.23242 17.0795 4.51747 18.5126 5.0713 19.8496C5.62512 21.1867 6.43688 22.4015 7.46021 23.4249C8.48355 24.4482 9.69842 25.26 11.0355 25.8138C12.3725 26.3676 13.8056 26.6527 15.2528 26.6527C18.1756 26.6527 20.9786 25.4916 23.0454 23.4249C25.1121 21.3582 26.2731 18.5551 26.2731 15.6323C26.2731 12.7095 25.1121 9.90645 23.0454 7.83973C20.9786 5.77301 18.1756 4.61194 15.2528 4.61194V4.61194ZM6.06915 15.6323C6.06915 13.1966 7.03671 10.8608 8.75897 9.13849C10.4812 7.41622 12.8171 6.44867 15.2528 6.44867C17.6884 6.44867 20.0243 7.41622 21.7466 9.13849C23.4689 10.8608 24.4364 13.1966 24.4364 15.6323C24.4364 18.068 23.4689 20.4038 21.7466 22.1261C20.0243 23.8484 17.6884 24.8159 15.2528 24.8159C12.8171 24.8159 10.4812 23.8484 8.75897 22.1261C7.03671 20.4038 6.06915 18.068 6.06915 15.6323Z" fill="#FF99A9"/>
</svg>
