<svg fill="none" height="58" viewBox="0 0 58 58" width="58" xmlns="http://www.w3.org/2000/svg" xmlns:xlink="http://www.w3.org/1999/xlink"><mask id="a" height="25" maskUnits="userSpaceOnUse" width="24" x="17" y="17"><path d="m17 17.3529h24v24h-24z" fill="#ff99a9"/></mask><circle cx="28.999" cy="29.3529" fill="#fff" r="28.5303"/><g mask="url(#a)"><path d="m28.0008 40.3529v-2c-2.0834-.2334-3.8707-1.0957-5.362-2.587-1.492-1.492-2.3547-3.2797-2.588-5.363h-2v-2h2c.2333-2.0834 1.096-3.8707 2.588-5.362 1.4913-1.492 3.2786-2.3547 5.362-2.588v-2h2v2c2.0833.2333 3.871 1.096 5.363 2.588 1.4913 1.4913 2.3536 3.2786 2.587 5.362h2v2h-2c-.2334 2.0833-1.0957 3.871-2.587 5.363-1.492 1.4913-3.2797 2.3536-5.363 2.587v2zm1-3.95c1.9333 0 3.5833-.6834 4.95-2.05 1.3666-1.3667 2.05-3.0167 2.05-4.95 0-1.9334-.6834-3.5834-2.05-4.95-1.3667-1.3667-3.0167-2.05-4.95-2.05-1.9334 0-3.5834.6833-4.95 2.05-1.3667 1.3666-2.05 3.0166-2.05 4.95 0 1.9333.6833 3.5833 2.05 4.95 1.3666 1.3666 3.0166 2.05 4.95 2.05z" fill="#ff99a9"/></g></svg>