<svg width="122" height="122" viewBox="0 0 122 122" fill="none" xmlns="http://www.w3.org/2000/svg">
<mask id="mask0_71_243" style="mask-type:alpha" maskUnits="userSpaceOnUse" x="0" y="0" width="122" height="122">
<rect x="0.482422" y="0.074707" width="121.2" height="121.2" fill="#D9D9D9"/>
</mask>
<g mask="url(#mask0_71_243)">
<path d="M35.8348 85.9247H46.4398L76.7397 55.8772L65.8822 45.0197L35.8348 75.0672V85.9247ZM80.2747 52.3422L85.5772 46.7872C86.0822 46.2822 86.3347 45.6931 86.3347 45.0197C86.3347 44.3464 86.0822 43.7572 85.5772 43.2522L78.5072 36.1822C78.0022 35.6772 77.4131 35.4247 76.7397 35.4247C76.0664 35.4247 75.4772 35.6772 74.9722 36.1822L69.4172 41.4847L80.2747 52.3422ZM25.7348 106.125C22.9573 106.125 20.5787 105.137 18.5991 103.16C16.6229 101.181 15.6348 98.8022 15.6348 96.0247V25.3247C15.6348 22.5472 16.6229 20.1687 18.5991 18.1891C20.5787 16.2129 22.9573 15.2248 25.7348 15.2248H46.9448C48.0389 12.1948 49.8704 9.75392 52.4392 7.90225C55.0045 6.05059 57.8864 5.12476 61.0847 5.12476C64.2831 5.12476 67.1666 6.05059 69.7354 7.90225C72.3008 9.75392 74.1306 12.1948 75.2247 15.2248H96.4347C99.2122 15.2248 101.591 16.2129 103.57 18.1891C105.547 20.1687 106.535 22.5472 106.535 25.3247V96.0247C106.535 98.8022 105.547 101.181 103.57 103.16C101.591 105.137 99.2122 106.125 96.4347 106.125H25.7348ZM25.7348 96.0247H96.4347V25.3247H25.7348V96.0247ZM61.0847 21.5373C62.1789 21.5373 63.0845 21.1787 63.8016 20.4616C64.5154 19.7479 64.8722 18.8439 64.8722 17.7498C64.8722 16.6556 64.5154 15.75 63.8016 15.0329C63.0845 14.3191 62.1789 13.9623 61.0847 13.9623C59.9906 13.9623 59.0866 14.3191 58.3729 15.0329C57.6558 15.75 57.2972 16.6556 57.2972 17.7498C57.2972 18.8439 57.6558 19.7479 58.3729 20.4616C59.0866 21.1787 59.9906 21.5373 61.0847 21.5373Z" fill="#333333"/>
</g>
</svg>
