<svg width="28" height="28" viewBox="0 0 28 28" fill="none" xmlns="http://www.w3.org/2000/svg">
<path fill-rule="evenodd" clip-rule="evenodd" d="M4.08984 23.0564V11.9552H5.79773V23.0564C5.79773 23.2829 5.88769 23.5001 6.04784 23.6602C6.20798 23.8204 6.42519 23.9104 6.65167 23.9104H22.0226C22.2491 23.9104 22.4663 23.8204 22.6264 23.6602C22.7866 23.5001 22.8765 23.2829 22.8765 23.0564V11.9552H24.5844V23.0564C24.5844 23.7359 24.3145 24.3875 23.8341 24.8679C23.3537 25.3483 22.702 25.6182 22.0226 25.6182H6.65167C5.97223 25.6182 5.32062 25.3483 4.84018 24.8679C4.35975 24.3875 4.08984 23.7359 4.08984 23.0564V23.0564ZM22.8765 4.26971V10.2473L19.4608 6.83154V4.26971C19.4608 4.04323 19.5507 3.82603 19.7109 3.66589C19.871 3.50574 20.0882 3.41577 20.3147 3.41577H22.0226C22.2491 3.41577 22.4663 3.50574 22.6264 3.66589C22.7866 3.82603 22.8765 4.04323 22.8765 4.26971Z" fill="#FF99A9"/>
<path fill-rule="evenodd" clip-rule="evenodd" d="M13.1301 2.56181C13.4503 2.24163 13.8847 2.06177 14.3375 2.06177C14.7904 2.06177 15.2247 2.24163 15.545 2.56181L26.8973 13.9124C27.0576 14.0727 27.1477 14.2902 27.1477 14.517C27.1477 14.7438 27.0576 14.9612 26.8973 15.1216C26.737 15.2819 26.5195 15.372 26.2927 15.372C26.0659 15.372 25.8485 15.2819 25.6881 15.1216L14.3375 3.76928L2.98695 15.1216C2.82661 15.2819 2.60913 15.372 2.38236 15.372C2.1556 15.372 1.93812 15.2819 1.77777 15.1216C1.61743 14.9612 1.52734 14.7438 1.52734 14.517C1.52734 14.2902 1.61743 14.0727 1.77777 13.9124L13.1301 2.56181Z" fill="#FF99A9"/>
</svg>
