<svg width="143" height="144" viewBox="0 0 143 144" fill="none" xmlns="http://www.w3.org/2000/svg">
<mask id="mask0_232_250" style="mask-type:alpha" maskUnits="userSpaceOnUse" x="0" y="0" width="143" height="144">
<rect x="0.185547" y="0.963745" width="142.814" height="142.814" fill="#D9D9D9"/>
</mask>
<g mask="url(#mask0_232_250)">
<path d="M31.7228 139.017C28.7475 139.017 26.2185 137.976 24.1358 135.893C22.0531 133.811 21.0117 131.282 21.0117 128.306V48.5686C21.0117 45.5933 22.0531 43.0643 24.1358 40.9816C26.2185 38.8989 28.7475 37.8576 31.7228 37.8576H82.6002L73.6743 46.7834H31.7228C31.3261 46.7834 30.9293 46.9818 30.5326 47.3785C30.1359 47.7752 29.9376 48.1719 29.9376 48.5686V128.306C29.9376 128.703 30.1359 129.1 30.5326 129.496C30.9293 129.893 31.3261 130.092 31.7228 130.092H111.46C111.857 130.092 112.254 129.893 112.651 129.496C113.047 129.1 113.246 128.703 113.246 128.306V86.206L122.172 77.2801V128.306C122.172 131.282 121.13 133.811 119.047 135.893C116.965 137.976 114.436 139.017 111.46 139.017H31.7228ZM98.518 40.3866L104.915 46.6347L65.641 85.9085V94.388H73.9718L113.543 54.9655L119.791 61.2136L77.8397 103.314H56.7152V82.1893L98.518 40.3866ZM119.791 61.2136L98.518 40.3866L112.204 26.7002C114.287 24.6175 116.842 23.5762 119.869 23.5762C122.892 23.5762 125.444 24.6671 127.527 26.849L133.329 32.6508C135.312 34.7335 136.304 37.2625 136.304 40.2378C136.304 43.2131 135.263 45.7421 133.18 47.8248L119.791 61.2136Z" fill="#333333"/>
</g>
</svg>
