<svg width="122" height="122" viewBox="0 0 122 122" fill="none" xmlns="http://www.w3.org/2000/svg">
<mask id="mask0_70_237" style="mask-type:alpha" maskUnits="userSpaceOnUse" x="0" y="0" width="122" height="122">
<rect x="0.386719" y="0.074707" width="121.2" height="121.2" fill="#D9D9D9"/>
</mask>
<g mask="url(#mask0_70_237)">
<path d="M20.5855 106.125V58.781L11.4955 65.7248L5.43555 57.6448L20.5855 46.0298V30.3748H30.6855V38.3285L60.9855 15.2248L116.536 57.6448L110.476 65.5985L101.386 58.781V106.125H20.5855ZM30.6855 96.0248H55.9355V75.8248H66.0355V96.0248H91.2855V51.0798L60.9855 27.976L30.6855 51.0798V96.0248ZM20.5855 25.3248C20.5855 21.1164 22.0585 17.5393 25.0043 14.5935C27.9501 11.6477 31.5272 10.1748 35.7355 10.1748C37.1664 10.1748 38.3666 9.68996 39.3362 8.72036C40.3024 7.75412 40.7855 6.55559 40.7855 5.12476H50.8855C50.8855 9.33309 49.4126 12.9102 46.4668 15.856C43.521 18.8018 39.9439 20.2748 35.7355 20.2748C34.3047 20.2748 33.1045 20.7579 32.1349 21.7241C31.1687 22.6937 30.6855 23.8939 30.6855 25.3248H20.5855Z" fill="#333333"/>
</g>
</svg>
