<svg width="174" height="175" viewBox="0 0 174 175" fill="none" xmlns="http://www.w3.org/2000/svg">
<circle cx="86.8573" cy="87.2045" r="86.8417" fill="#FE6975"/>
<mask id="mask0_70_227" style="mask-type:alpha" maskUnits="userSpaceOnUse" x="30" y="27" width="114" height="114">
<rect x="30.3379" y="27.0014" width="113.014" height="113.014" fill="#D9D9D9"/>
</mask>
<g mask="url(#mask0_70_227)">
<path d="M49.1698 125.889V81.7429L40.6937 88.2177L35.043 80.6834L49.1698 69.8528V55.2551H58.5877V62.6717L86.8413 41.1283L138.64 80.6834L132.989 88.1L124.513 81.7429V125.889H49.1698ZM58.5877 116.471H82.1323V97.6356H91.5502V116.471H115.095V74.5618L86.8413 53.0184L58.5877 74.5618V116.471ZM49.1698 50.5462C49.1698 46.6221 50.5432 43.2866 53.2901 40.5397C56.037 37.7928 59.3725 36.4194 63.2966 36.4194C64.6308 36.4194 65.7499 35.9673 66.6541 35.0632C67.555 34.1622 68.0055 33.0446 68.0055 31.7104H77.4234C77.4234 35.6346 76.05 38.9701 73.3031 41.7169C70.5562 44.4638 67.2207 45.8373 63.2966 45.8373C61.9624 45.8373 60.8432 46.2877 59.9391 47.1887C59.0381 48.0928 58.5877 49.212 58.5877 50.5462H49.1698Z" fill="white"/>
</g>
</svg>
