<svg width="73" height="73" viewBox="0 0 73 73" fill="none" xmlns="http://www.w3.org/2000/svg">
<path d="M25.8917 14.4739L17.6465 11.7225C16.7405 11.4207 15.7757 11.3386 14.8316 11.4828C13.8875 11.6271 12.9913 11.9936 12.2167 12.5522C11.4421 13.1108 10.8113 13.8454 10.3763 14.6956C9.94133 15.5458 9.71461 16.4872 9.71484 17.4422V52.9511C9.71454 54.2166 10.1126 55.45 10.8525 56.4767C11.5925 57.5033 12.6368 58.2709 13.8374 58.6708L25.8917 62.6879C27.128 63.0997 28.4645 63.0997 29.7008 62.6879L43.9731 57.9325C45.2094 57.5207 46.5459 57.5207 47.7822 57.9325L56.0273 60.6809C56.9336 60.9827 57.8987 61.0649 58.843 60.9204C59.7873 60.776 60.6837 60.4092 61.4584 59.8503C62.2331 59.2914 62.8638 58.5563 63.2986 57.7057C63.7334 56.8551 63.9597 55.9134 63.959 54.9581V19.4523C63.9595 18.1872 63.5619 16.954 62.8226 15.9274C62.0832 14.9008 61.0395 14.133 59.8395 13.7325L47.7852 9.71547C46.548 9.30302 45.2103 9.30302 43.9731 9.71547L29.6978 14.4709C28.4615 14.8827 27.125 14.8827 25.8886 14.4709L25.8917 14.4739Z" stroke="#333333" stroke-width="6.02713" stroke-linecap="round" stroke-linejoin="round"/>
<path d="M27.7969 15.1066V63.3236M45.8783 9.07947V57.2965" stroke="#333333" stroke-width="6.02713" stroke-linejoin="round"/>
</svg>
