<svg width="58" height="58" viewBox="0 0 58 58" fill="none" xmlns="http://www.w3.org/2000/svg">
<circle cx="28.999" cy="29.3529" r="28.5303" fill="white"/>
<mask id="mask0_69_367" style="mask-type:alpha" maskUnits="userSpaceOnUse" x="17" y="17" width="24" height="25">
<rect x="17" y="17.3529" width="24" height="24" fill="#FF99A9"/>
</mask>
<g mask="url(#mask0_69_367)">
<path d="M28.0008 40.3529V38.3529C25.9174 38.1195 24.1301 37.2572 22.6388 35.7659C21.1468 34.2739 20.2841 32.4862 20.0508 30.4029H18.0508V28.4029H20.0508C20.2841 26.3195 21.1468 24.5322 22.6388 23.0409C24.1301 21.5489 25.9174 20.6862 28.0008 20.4529V18.4529H30.0008V20.4529C32.0841 20.6862 33.8718 21.5489 35.3638 23.0409C36.8551 24.5322 37.7174 26.3195 37.9508 28.4029H39.9508V30.4029H37.9508C37.7174 32.4862 36.8551 34.2739 35.3638 35.7659C33.8718 37.2572 32.0841 38.1195 30.0008 38.3529V40.3529H28.0008ZM29.0008 36.4029C30.9341 36.4029 32.5841 35.7195 33.9508 34.3529C35.3174 32.9862 36.0008 31.3362 36.0008 29.4029C36.0008 27.4695 35.3174 25.8195 33.9508 24.4529C32.5841 23.0862 30.9341 22.4029 29.0008 22.4029C27.0674 22.4029 25.4174 23.0862 24.0508 24.4529C22.6841 25.8195 22.0008 27.4695 22.0008 29.4029C22.0008 31.3362 22.6841 32.9862 24.0508 34.3529C25.4174 35.7195 27.0674 36.4029 29.0008 36.4029Z" fill="#FF99A9"/>
</g>
</svg>
